<?xml version="1.0" encoding="UTF-8" standalone="no"?>
<!-- Created with Inkscape (http://www.inkscape.org/) -->

<svg
   xmlns:dc="http://purl.org/dc/elements/1.1/"
   xmlns:cc="http://creativecommons.org/ns#"
   xmlns:rdf="http://www.w3.org/1999/02/22-rdf-syntax-ns#"
   xmlns:svg="http://www.w3.org/2000/svg"
   xmlns="http://www.w3.org/2000/svg"
   xmlns:sodipodi="http://sodipodi.sourceforge.net/DTD/sodipodi-0.dtd"
   xmlns:inkscape="http://www.inkscape.org/namespaces/inkscape"
   width="612.49396"
   height="388.81332"
   id="svg2"
   version="1.1"
   inkscape:version="0.48.2 r9819"
   sodipodi:docname="Circuito urbano de bilbao.svg">
  <defs
     id="defs4" />
  <sodipodi:namedview
     id="base"
     pagecolor="#ffffff"
     bordercolor="#666666"
     borderopacity="1.0"
     inkscape:pageopacity="0.0"
     inkscape:pageshadow="2"
     inkscape:zoom="0.87191832"
     inkscape:cx="520.12492"
     inkscape:cy="205.9801"
     inkscape:document-units="px"
     inkscape:current-layer="layer1"
     showgrid="false"
     inkscape:window-width="1280"
     inkscape:window-height="962"
     inkscape:window-x="-8"
     inkscape:window-y="-8"
     inkscape:window-maximized="1"
     fit-margin-top="0"
     fit-margin-left="0"
     fit-margin-right="0"
     fit-margin-bottom="0" />
  <metadata
     id="metadata7">
    <rdf:RDF>
      <cc:Work
         rdf:about="">
        <dc:format>image/svg+xml</dc:format>
        <dc:type
           rdf:resource="http://purl.org/dc/dcmitype/StillImage" />
        <dc:title></dc:title>
      </cc:Work>
    </rdf:RDF>
  </metadata>
  <g
     inkscape:label="Capa 1"
     inkscape:groupmode="layer"
     id="layer1"
     transform="translate(-41.63515,-310.48783)">
    <g
       id="g3768">
      <g
         id="g3765">
        <path
           style="fill:#000000;fill-opacity:1;stroke:#000000;stroke-width:1px;stroke-linecap:butt;stroke-linejoin:miter;stroke-opacity:1"
           d="m 485.6875,311 c -2.17075,-0.09 -4.5284,0.31469 -6.96875,1.5 -9.7614,4.74126 -1.3125,23.0625 -1.3125,23.0625 l 16.21875,43.34375 6.09375,-2.125 -7.53125,-20.5 -10.59375,-26.6875 c 0,0 -6.0589,-16.32385 9.25,-11.21875 2.3812,0.79404 8.08565,7.40526 10.96875,9.5 9.0357,6.56486 17.59375,11.0625 17.59375,11.0625 l 14.3125,9.09375 10.65625,5.4375 c 0,0 12.5816,6.09657 3.0625,8.875 -7.7889,2.2734 -17.78125,4.84375 -17.78125,4.84375 l -27.8125,8.84375 -2.125,0.75 1.9375,5.25 c 0.29451,-0.0942 40.6154,-12.98221 47.5625,-14.09375 6.9724,-1.11559 7.625,-6.0625 7.625,-6.0625 0,0 4.5715,-9.5347 -8.375,-14.4375 C 534.74145,342.23905 497,315.8125 497,315.8125 c 0,0 -4.80024,-4.54241 -11.3125,-4.8125 z m 15.96875,71.03125 c -10e-4,3.4e-4 -0.0937,0.0312 -0.0937,0.0312 l -6,2.03125 16.40625,43.8125 c 0,0 7.07795,15.60975 22.03125,48.125 26.6372,57.92142 63.84375,62.9375 63.84375,62.9375 l 8.09375,0.78125 c 0.1964,-0.0982 13.90485,-2.53612 13.71875,3.78125 C 619.42485,551.38611 622,555.375 622,555.375 l 11.21875,19.09375 c 0,0 5.96385,17.74722 10.09375,19.4375 4.5606,1.86658 4.5308,7.18303 1.875,8.625 -3.1578,4.26872 -5.5,13.40625 -5.5,13.40625 0,0 -17.3166,60.24095 -21.5,70.28125 -4.1835,10.0403 -15.875,5.59375 -15.875,5.59375 l -35.4375,-10.875 c 0,0 -75.79475,-23.36492 -81.09375,-25.875 -5.299,-2.51007 -2.21875,-7.625 -2.21875,-7.625 0,0 3.81015,-5.19088 3.53125,-13 C 486.81485,626.62838 474,623.75 474,623.75 l -62.46875,-16.71875 c 0,0 -58.55955,-15.63912 -61.90625,-17.3125 -3.3468,-1.67338 -6.9705,-0.83735 -10.875,3.625 -3.9046,4.46236 3.0672,10.33235 3.625,20.09375 0.5578,9.7614 -6.78525,12.21875 -10.96875,12.21875 -4.1834,0 -11.2399,-4.09713 -13.75,-11.90625 -2.5101,-7.80912 -16.28125,-16.21875 -16.28125,-16.21875 0,0 -8.48105,-8.61025 -8.65625,-16.4375 -0.1618,-7.22571 4.461,-13.11022 7.25,-15.0625 2.7889,-1.95228 5.01715,-6.70029 3.34375,-15.625 C 301.6391,541.48154 288.25,511.625 288.25,511.625 c 0,0 -17.5464,-31.77184 -52.6875,-30.65625 -35.141,1.11558 -67.5,25.65625 -67.5,25.65625 0,0 -5.29875,5.2883 -14.78125,6.125 -9.48247,0.83669 -12.40625,-4.21875 -12.40625,-4.21875 -2.85482,-2.66817 -7.54158,-6.75491 -20.875,-2.4375 l -12.6875,-0.0625 -12.3125,-0.25 -26.5,-1.125 -17.5625,-3.34375 c 0,0 -2.95956,-1.22256 -2.53125,-7.8125 0.36582,-5.62847 1.96875,-17.5625 1.96875,-17.5625 1.76691,-4.21929 1.46696,-8.65577 12.8125,-6.40625 l 47.34375,7.09375 c 36.97397,2.62769 56.76375,-1.18389 77.96875,-2.90625 21.5479,-2.94886 44.9375,-8.8125 44.9375,-8.8125 l 35.59375,-8.375 23.3125,-9.65625 L 348,424.09375 c 7.0829,-2.13545 10.7101,-7.1653 21.0625,-6.03125 0,0 16.6663,1.52813 24.75,-2.53125 7.2513,-3.6414 5.8594,-7.04125 17.0625,-8.28125 26.9018,-2.9776 42.96875,-9 42.96875,-9 l 41.71875,-14.15625 -1.9375,-5.1875 -26.4375,9.21875 -26.03125,7.5 -16.5625,3.84375 -12.125,1.21875 c -2.8542,-0.16488 -10.97025,0.45559 -14.84375,3.09375 0,0 -5.717,12.79831 -25,7.46875 -16.6356,-4.59783 -33.8867,10.04834 -37.25,10.46875 l -32.0625,13.375 -31.46875,13.125 -16.3125,4.8125 -36.09375,8.6875 c 0,0 -68.94957,15.013 -115.3125,8.5625 -31.084226,-4.32476 -37.385546,-5.03696 -38.25,-5.0625 -1.910673,-0.63891 -16.548632,-5.15318 -19.1875,6.15625 -2.82209,12.09467 -3.8125,22 -3.8125,22 0,0 -3.84606,10.8764 6.03125,13.09375 9.87732,2.21736 43.9375,4.625 43.9375,4.625 l 28.03125,0 c 8.49668,-0.3602 10.04784,-2.99809 16.75,2.0625 4.43779,3.35083 7.03125,5.28125 7.03125,5.28125 0,0 11.91555,0.94611 16.90625,-1.1875 6.6012,-2.82209 23.625,-15.625 23.625,-15.625 0,0 46.8743,-22.77301 69.125,-12.28125 18.9509,8.93584 28.21875,24.96875 28.21875,24.96875 2.3022,4.32869 6.67875,12.33651 9.03125,18.125 l 5.90625,16.875 c 0,0 3.70385,9.7963 -2.21875,13.40625 -7.9037,4.81748 -8.34375,16.09375 -8.34375,16.09375 0,0 -2.5788,9.17296 6.3125,18.96875 5.9518,6.5573 8.125,7.78125 8.125,7.78125 l 6.1875,4.96875 c 0,0 4.65625,8.1016 9.84375,14.875 3.3784,4.41114 12.0941,6.4478 12.125,6.4375 0,0 18.80195,0.58796 18.96875,-14.5 0.113,-10.22235 -3.40625,-16 -3.40625,-16 0,0 -3.50995,-6.42033 3.34375,-6.21875 C 355.25985,595.32658 367,600 367,600 l 46.5625,12.90625 39.34375,11.25 20.65625,5.46875 c -0.3362,-0.21367 12.3381,1.87816 6.3125,10.6875 -5.1125,7.47443 -4.1875,12.09375 -4.1875,12.09375 0.8225,3.33839 2.56555,6.58145 6.53125,7.5625 l 56.125,18.65625 59.46875,18.53125 c 0,0 16.12925,5.23344 22.78125,-3.03125 6.6521,-8.26469 20.03125,-60.875 20.03125,-60.875 l 8.78125,-25.71875 c 0,0 5.24075,-7.31838 4.03125,-12.15625 -0.9313,-4.42069 -5.90425,-6.52832 -9.34375,-11.6875 l -8.1875,-17.15625 -6.4375,-10.5 c 0,0 -3.57845,-6.41443 -3.28125,-8.75 0.8249,-6.4835 -0.7222,-13.05049 -5,-14.21875 -4.1808,-1.14178 -12.09375,-0.28125 -12.09375,-0.28125 0,0 -11.07905,1.10194 -19.34375,-3.9375 -8.2647,-5.03945 -24.59375,-18.9375 -24.59375,-18.9375 L 554.875,498 l -13.90625,-22.96875 -15.53125,-33.0625 -20.75,-51.625 -3.03125,-8.3125 z"
           id="path3007"
           inkscape:connector-curvature="0" />
      </g>
    </g>
  </g>
</svg>
